# xmcd CD database file
#
# Track frame offsets:
#	150
#	12132
#	24880
#	41947
#	56627
#	72115
#	84630
#	96762
#	108525
#	119375
#	132167
#	146612
#	161202
#	171730
#	184852
#	197737
#
# Disc length: 2811 seconds
#
# Revision: 0
# Processed by: cddbd v1.4PL0 Copyright (c) Steve Scherf et al.
# Submitted via: CDex 1.40Release
#
DISCID=e60af910
DTITLE=Various Artist - Country Legends CD#2
DYEAR=1900
DGENRE=Country
TTITLE0=Tammy Wynette/stand by your man
TTITLE1=Merle Haggard/Let's chaseeach other around the room
TTITLE2=Ray Price/for the good times
TTITLE3=George Jones/he stopped loving her today
TTITLE4=Willie Nelson/Mammas don't let your babys grow up to be cowboys
TTITLE5=Jimmy Dickens/take an old cold tater
TTITLE6=Floyd Tillman/I love you so much it hurts
TTITLE7=Ricky Skaggs/he was onto something
TTITLE8=Tanya Tucker/would you lay with me
TTITLE9=Billy Walker/funny how times slips away
TTITLE10=David Allan Coe/Willie, Waylon and me
TTITLE11=Rosanne Cash/seven year ache
TTITLE12=Ricky van Shelton/from a jack to a king
TTITLE13=David Houston/almost persuaded
TTITLE14=Lynn Anderson/i never promised you a rose garden
TTITLE15=George Morgan/candy kisses
EXTD=ID3G: 2
EXTT0=
EXTT1=
EXTT2=
EXTT3=
EXTT4=
EXTT5=
EXTT6=
EXTT7=
EXTT8=
EXTT9=
EXTT10=
EXTT11=
EXTT12=
EXTT13=
EXTT14=
EXTT15=
PLAYORDER=
